<svg xmlns="http://www.w3.org/2000/svg" version="1.1" width="260" height="144">
<path d="M 37.878906 52.319336 L 37.878906 45.412109 L 41.729980 45.412109 L 41.729980 46.335938 L 38.738281 46.335938 L 38.738281 52.319336 Z " fill="rgb(0, 0, 0)" fill-opacity="1.000000" />
<path d="M 37.878906 65.319336 L 37.878906 51.300781 L 38.738281 51.300781 L 38.738281 65.319336 Z " fill="rgb(0, 0, 0)" fill-opacity="1.000000" />
<path d="M 37.878906 78.319336 L 37.878906 64.300781 L 38.738281 64.300781 L 38.738281 78.319336 Z " fill="rgb(0, 0, 0)" fill-opacity="1.000000" />
<path d="M 37.878906 91.319336 L 37.878906 77.300781 L 38.738281 77.300781 L 38.738281 91.319336 Z " fill="rgb(0, 0, 0)" fill-opacity="1.000000" />
<path d="M 37.878906 98.335938 L 37.878906 90.300781 L 38.738281 90.300781 L 38.738281 97.412109 L 41.729980 97.412109 L 41.729980 98.335938 Z " fill="rgb(0, 0, 0)" fill-opacity="1.000000" />
<path d="M 41.892578 98.335938 L 41.892578 97.412109 L 48.729980 97.412109 L 48.729980 98.335938 Z " fill="rgb(0, 0, 0)" fill-opacity="1.000000" />
<path d="M 48.892578 98.335938 L 48.892578 97.412109 L 55.729980 97.412109 L 55.729980 98.335938 Z " fill="rgb(0, 0, 0)" fill-opacity="1.000000" />
<path d="M 55.892578 98.335938 L 55.892578 97.412109 L 62.729980 97.412109 L 62.729980 98.335938 Z " fill="rgb(0, 0, 0)" fill-opacity="1.000000" />
<path d="M 62.892578 98.335938 L 62.892578 97.412109 L 69.729980 97.412109 L 69.729980 98.335938 Z " fill="rgb(0, 0, 0)" fill-opacity="1.000000" />
<path d="M 69.892578 98.335938 L 69.892578 97.412109 L 76.729980 97.412109 L 76.729980 98.335938 Z " fill="rgb(0, 0, 0)" fill-opacity="1.000000" />
<path d="M 76.892578 98.335938 L 76.892578 97.412109 L 83.729980 97.412109 L 83.729980 98.335938 Z " fill="rgb(0, 0, 0)" fill-opacity="1.000000" />
<path d="M 83.892578 98.335938 L 83.892578 97.412109 L 90.729980 97.412109 L 90.729980 98.335938 Z " fill="rgb(0, 0, 0)" fill-opacity="1.000000" />
<path d="M 90.892578 98.335938 L 90.892578 97.412109 L 97.729980 97.412109 L 97.729980 98.335938 Z " fill="rgb(0, 0, 0)" fill-opacity="1.000000" />
<path d="M 97.892578 98.335938 L 97.892578 97.412109 L 104.729980 97.412109 L 104.729980 98.335938 Z " fill="rgb(0, 0, 0)" fill-opacity="1.000000" />
<path d="M 104.892578 98.335938 L 104.892578 97.412109 L 111.729980 97.412109 L 111.729980 98.335938 Z " fill="rgb(0, 0, 0)" fill-opacity="1.000000" />
<path d="M 111.892578 98.335938 L 111.892578 97.412109 L 118.729980 97.412109 L 118.729980 98.335938 Z " fill="rgb(0, 0, 0)" fill-opacity="1.000000" />
<path d="M 118.892578 98.335938 L 118.892578 97.412109 L 125.729980 97.412109 L 125.729980 98.335938 Z " fill="rgb(0, 0, 0)" fill-opacity="1.000000" />
<path d="M 125.892578 98.335938 L 125.892578 97.412109 L 132.729980 97.412109 L 132.729980 98.335938 Z " fill="rgb(0, 0, 0)" fill-opacity="1.000000" />
<path d="M 132.892578 98.335938 L 132.892578 97.412109 L 139.729980 97.412109 L 139.729980 98.335938 Z " fill="rgb(0, 0, 0)" fill-opacity="1.000000" />
<path d="M 139.892578 98.335938 L 139.892578 97.412109 L 146.729980 97.412109 L 146.729980 98.335938 Z " fill="rgb(0, 0, 0)" fill-opacity="1.000000" />
<path d="M 146.892578 98.335938 L 146.892578 97.412109 L 153.729980 97.412109 L 153.729980 98.335938 Z " fill="rgb(0, 0, 0)" fill-opacity="1.000000" />
<path d="M 153.892578 98.335938 L 153.892578 97.412109 L 160.729980 97.412109 L 160.729980 98.335938 Z " fill="rgb(0, 0, 0)" fill-opacity="1.000000" />
<path d="M 160.892578 98.335938 L 160.892578 97.412109 L 167.729980 97.412109 L 167.729980 98.335938 Z " fill="rgb(0, 0, 0)" fill-opacity="1.000000" />
<path d="M 167.892578 98.335938 L 167.892578 97.412109 L 174.729980 97.412109 L 174.729980 98.335938 Z " fill="rgb(0, 0, 0)" fill-opacity="1.000000" />
<path d="M 174.892578 98.335938 L 174.892578 97.412109 L 181.729980 97.412109 L 181.729980 98.335938 Z " fill="rgb(0, 0, 0)" fill-opacity="1.000000" />
<path d="M 181.892578 98.335938 L 181.892578 97.412109 L 188.729980 97.412109 L 188.729980 98.335938 Z " fill="rgb(0, 0, 0)" fill-opacity="1.000000" />
<path d="M 188.892578 98.335938 L 188.892578 97.412109 L 195.729980 97.412109 L 195.729980 98.335938 Z " fill="rgb(0, 0, 0)" fill-opacity="1.000000" />
<path d="M 195.892578 98.335938 L 195.892578 97.412109 L 202.729980 97.412109 L 202.729980 98.335938 Z " fill="rgb(0, 0, 0)" fill-opacity="1.000000" />
<path d="M 202.892578 98.335938 L 202.892578 97.412109 L 209.729980 97.412109 L 209.729980 98.335938 Z " fill="rgb(0, 0, 0)" fill-opacity="1.000000" />
<path d="M 209.892578 98.335938 L 209.892578 97.412109 L 216.729980 97.412109 L 216.729980 98.335938 Z " fill="rgb(0, 0, 0)" fill-opacity="1.000000" />
<path d="M 216.892578 98.335938 L 216.892578 97.412109 L 219.878906 97.412109 L 219.878906 90.300781 L 220.738281 90.300781 L 220.738281 98.335938 Z " fill="rgb(0, 0, 0)" fill-opacity="1.000000" />
<path d="M 51.878906 65.319336 L 51.878906 58.412109 L 55.729980 58.412109 L 55.729980 59.335938 L 52.738281 59.335938 L 52.738281 65.319336 Z " fill="rgb(0, 0, 0)" fill-opacity="1.000000" />
<path d="M 51.878906 78.319336 L 51.878906 64.300781 L 52.738281 64.300781 L 52.738281 78.319336 Z " fill="rgb(0, 0, 0)" fill-opacity="1.000000" />
<path d="M 51.878906 85.335938 L 51.878906 77.300781 L 52.738281 77.300781 L 52.738281 84.412109 L 55.729980 84.412109 L 55.729980 85.335938 Z " fill="rgb(0, 0, 0)" fill-opacity="1.000000" />
<path d="M 55.892578 85.335938 L 55.892578 84.412109 L 62.729980 84.412109 L 62.729980 85.335938 Z " fill="rgb(0, 0, 0)" fill-opacity="1.000000" />
<path d="M 62.892578 85.335938 L 62.892578 84.412109 L 69.729980 84.412109 L 69.729980 85.335938 Z " fill="rgb(0, 0, 0)" fill-opacity="1.000000" />
<path d="M 69.892578 85.335938 L 69.892578 84.412109 L 76.729980 84.412109 L 76.729980 85.335938 Z " fill="rgb(0, 0, 0)" fill-opacity="1.000000" />
<path d="M 76.892578 85.335938 L 76.892578 84.412109 L 79.878906 84.412109 L 79.878906 77.300781 L 80.738281 77.300781 L 80.738281 85.335938 Z " fill="rgb(0, 0, 0)" fill-opacity="1.000000" />
<path d="M 114.878906 85.335938 L 114.878906 77.300781 L 115.738281 77.300781 L 115.738281 84.412109 L 118.729980 84.412109 L 118.729980 85.335938 Z " fill="rgb(0, 0, 0)" fill-opacity="1.000000" />
<path d="M 118.892578 85.335938 L 118.892578 84.412109 L 125.729980 84.412109 L 125.729980 85.335938 Z " fill="rgb(0, 0, 0)" fill-opacity="1.000000" />
<path d="M 125.892578 85.335938 L 125.892578 84.412109 L 132.729980 84.412109 L 132.729980 85.335938 Z " fill="rgb(0, 0, 0)" fill-opacity="1.000000" />
<path d="M 132.892578 85.335938 L 132.892578 84.412109 L 139.729980 84.412109 L 139.729980 85.335938 Z " fill="rgb(0, 0, 0)" fill-opacity="1.000000" />
<path d="M 139.892578 85.335938 L 139.892578 84.412109 L 142.878906 84.412109 L 142.878906 77.300781 L 143.738281 77.300781 L 143.738281 85.335938 Z " fill="rgb(0, 0, 0)" fill-opacity="1.000000" />
<path d="M 177.878906 85.335938 L 177.878906 77.300781 L 178.738281 77.300781 L 178.738281 84.412109 L 181.729980 84.412109 L 181.729980 85.335938 Z " fill="rgb(0, 0, 0)" fill-opacity="1.000000" />
<path d="M 181.892578 85.335938 L 181.892578 84.412109 L 188.729980 84.412109 L 188.729980 85.335938 Z " fill="rgb(0, 0, 0)" fill-opacity="1.000000" />
<path d="M 188.892578 85.335938 L 188.892578 84.412109 L 195.729980 84.412109 L 195.729980 85.335938 Z " fill="rgb(0, 0, 0)" fill-opacity="1.000000" />
<path d="M 195.892578 85.335938 L 195.892578 84.412109 L 202.729980 84.412109 L 202.729980 85.335938 Z " fill="rgb(0, 0, 0)" fill-opacity="1.000000" />
<path d="M 202.892578 85.335938 L 202.892578 84.412109 L 205.878906 84.412109 L 205.878906 77.300781 L 206.738281 77.300781 L 206.738281 85.335938 Z " fill="rgb(0, 0, 0)" fill-opacity="1.000000" />
<path d="M 219.878906 91.319336 L 219.878906 77.300781 L 220.738281 77.300781 L 220.738281 91.319336 Z " fill="rgb(0, 0, 0)" fill-opacity="1.000000" />
<path d="M 68.763184 74.715332 Q 68.349609 74.935547 67.914551 75.045654 Q 67.479492 75.155762 66.990723 75.155762 Q 65.449219 75.155762 64.597900 74.065430 Q 63.746582 72.975098 63.746582 70.998535 Q 63.746582 69.032715 64.603271 67.934326 Q 65.459961 66.835938 66.990723 66.835938 Q 67.479492 66.835938 67.914551 66.946045 Q 68.349609 67.056152 68.763184 67.276367 L 68.763184 68.388184 Q 68.365723 68.060547 67.909180 67.888672 Q 67.452637 67.716797 66.990723 67.716797 Q 65.932617 67.716797 65.406250 68.533203 Q 64.879883 69.349609 64.879883 70.998535 Q 64.879883 72.642090 65.406250 73.458496 Q 65.932617 74.274902 66.990723 74.274902 Q 67.463379 74.274902 67.917236 74.103027 Q 68.371094 73.931152 68.763184 73.603516 Z " fill="rgb(0, 0, 0)" fill-opacity="1.000000" />
<path d="M 79.878906 78.319336 L 79.878906 64.300781 L 80.738281 64.300781 L 80.738281 78.319336 Z " fill="rgb(0, 0, 0)" fill-opacity="1.000000" />
<path d="M 83.892578 72.335938 L 83.892578 71.412109 L 90.729980 71.412109 L 90.729980 72.335938 Z " fill="rgb(0, 0, 0)" fill-opacity="1.000000" />
<path d="M 90.892578 72.335938 L 90.892578 71.412109 L 97.729980 71.412109 L 97.729980 72.335938 Z " fill="rgb(0, 0, 0)" fill-opacity="1.000000" />
<path d="M 97.892578 72.335938 L 97.892578 71.412109 L 104.729980 71.412109 L 104.729980 72.335938 Z " fill="rgb(0, 0, 0)" fill-opacity="1.000000" />
<path d="M 105.032227 75.418945 L 105.032227 68.866211 L 111.590332 72.142578 Z " fill="rgb(0, 0, 0)" fill-opacity="1.000000" />
<path d="M 114.878906 78.319336 L 114.878906 64.300781 L 115.738281 64.300781 L 115.738281 78.319336 Z " fill="rgb(0, 0, 0)" fill-opacity="1.000000" />
<path d="M 127.981934 70.955566 L 127.981934 74.108398 L 129.265625 74.108398 Q 130.210938 74.108398 130.613770 73.778076 Q 131.016602 73.447754 131.016602 72.690430 Q 131.016602 71.691406 130.592285 71.323486 Q 130.167969 70.955566 129.265625 70.955566 Z M 127.981934 67.872559 L 127.981934 70.074707 L 129.244141 70.074707 Q 130.028320 70.074707 130.380127 69.773926 Q 130.731934 69.473145 130.731934 69.016602 Q 130.731934 68.409668 130.385498 68.141113 Q 130.039062 67.872559 129.244141 67.872559 Z M 126.891602 66.980957 L 129.265625 66.980957 Q 130.495605 66.980957 131.161621 67.512695 Q 131.827637 68.044434 131.827637 69.016602 Q 131.827637 69.537598 131.475830 69.961914 Q 131.124023 70.386230 130.420410 70.493652 Q 131.209961 70.611816 131.658447 71.167725 Q 132.106934 71.723633 132.106934 72.797852 Q 132.106934 73.888184 131.392578 74.444092 Q 130.678223 75.000000 129.265625 75.000000 L 126.891602 75.000000 Z " fill="rgb(0, 0, 0)" fill-opacity="1.000000" />
<path d="M 142.878906 78.319336 L 142.878906 64.300781 L 143.738281 64.300781 L 143.738281 78.319336 Z " fill="rgb(0, 0, 0)" fill-opacity="1.000000" />
<path d="M 146.892578 72.335938 L 146.892578 71.412109 L 153.729980 71.412109 L 153.729980 72.335938 Z " fill="rgb(0, 0, 0)" fill-opacity="1.000000" />
<path d="M 153.892578 72.335938 L 153.892578 71.412109 L 160.729980 71.412109 L 160.729980 72.335938 Z " fill="rgb(0, 0, 0)" fill-opacity="1.000000" />
<path d="M 160.892578 72.335938 L 160.892578 71.412109 L 167.729980 71.412109 L 167.729980 72.335938 Z " fill="rgb(0, 0, 0)" fill-opacity="1.000000" />
<path d="M 168.032227 75.418945 L 168.032227 68.866211 L 174.590332 72.142578 Z " fill="rgb(0, 0, 0)" fill-opacity="1.000000" />
<path d="M 177.878906 78.319336 L 177.878906 64.300781 L 178.738281 64.300781 L 178.738281 78.319336 Z " fill="rgb(0, 0, 0)" fill-opacity="1.000000" />
<path d="M 192.308594 67.937012 L 191.164551 72.040527 L 193.452637 72.040527 Z M 191.653320 66.980957 L 192.969238 66.980957 L 195.423828 75.000000 L 194.301270 75.000000 L 193.710449 72.910645 L 190.901367 72.910645 L 190.321289 75.000000 L 189.198730 75.000000 Z " fill="rgb(0, 0, 0)" fill-opacity="1.000000" />
<path d="M 205.878906 78.319336 L 205.878906 64.300781 L 206.738281 64.300781 L 206.738281 78.319336 Z " fill="rgb(0, 0, 0)" fill-opacity="1.000000" />
<path d="M 219.878906 78.319336 L 219.878906 64.300781 L 220.738281 64.300781 L 220.738281 78.319336 Z " fill="rgb(0, 0, 0)" fill-opacity="1.000000" />
<path d="M 55.892578 59.335938 L 55.892578 58.412109 L 62.729980 58.412109 L 62.729980 59.335938 Z " fill="rgb(0, 0, 0)" fill-opacity="1.000000" />
<path d="M 62.892578 59.335938 L 62.892578 58.412109 L 69.729980 58.412109 L 69.729980 59.335938 Z " fill="rgb(0, 0, 0)" fill-opacity="1.000000" />
<path d="M 69.892578 59.335938 L 69.892578 58.412109 L 76.729980 58.412109 L 76.729980 59.335938 Z " fill="rgb(0, 0, 0)" fill-opacity="1.000000" />
<path d="M 79.878906 65.319336 L 79.878906 59.335938 L 76.892578 59.335938 L 76.892578 58.412109 L 80.738281 58.412109 L 80.738281 65.319336 Z " fill="rgb(0, 0, 0)" fill-opacity="1.000000" />
<path d="M 114.878906 65.319336 L 114.878906 58.412109 L 118.729980 58.412109 L 118.729980 59.335938 L 115.738281 59.335938 L 115.738281 65.319336 Z " fill="rgb(0, 0, 0)" fill-opacity="1.000000" />
<path d="M 118.892578 59.335938 L 118.892578 58.412109 L 125.729980 58.412109 L 125.729980 59.335938 Z " fill="rgb(0, 0, 0)" fill-opacity="1.000000" />
<path d="M 125.892578 59.335938 L 125.892578 58.412109 L 132.729980 58.412109 L 132.729980 59.335938 Z " fill="rgb(0, 0, 0)" fill-opacity="1.000000" />
<path d="M 132.892578 59.335938 L 132.892578 58.412109 L 139.729980 58.412109 L 139.729980 59.335938 Z " fill="rgb(0, 0, 0)" fill-opacity="1.000000" />
<path d="M 142.878906 65.319336 L 142.878906 59.335938 L 139.892578 59.335938 L 139.892578 58.412109 L 143.738281 58.412109 L 143.738281 65.319336 Z " fill="rgb(0, 0, 0)" fill-opacity="1.000000" />
<path d="M 177.878906 65.319336 L 177.878906 58.412109 L 181.729980 58.412109 L 181.729980 59.335938 L 178.738281 59.335938 L 178.738281 65.319336 Z " fill="rgb(0, 0, 0)" fill-opacity="1.000000" />
<path d="M 181.892578 59.335938 L 181.892578 58.412109 L 188.729980 58.412109 L 188.729980 59.335938 Z " fill="rgb(0, 0, 0)" fill-opacity="1.000000" />
<path d="M 188.892578 59.335938 L 188.892578 58.412109 L 195.729980 58.412109 L 195.729980 59.335938 Z " fill="rgb(0, 0, 0)" fill-opacity="1.000000" />
<path d="M 195.892578 59.335938 L 195.892578 58.412109 L 202.729980 58.412109 L 202.729980 59.335938 Z " fill="rgb(0, 0, 0)" fill-opacity="1.000000" />
<path d="M 205.878906 65.319336 L 205.878906 59.335938 L 202.892578 59.335938 L 202.892578 58.412109 L 206.738281 58.412109 L 206.738281 65.319336 Z " fill="rgb(0, 0, 0)" fill-opacity="1.000000" />
<path d="M 219.878906 65.319336 L 219.878906 51.300781 L 220.738281 51.300781 L 220.738281 65.319336 Z " fill="rgb(0, 0, 0)" fill-opacity="1.000000" />
<path d="M 41.892578 46.335938 L 41.892578 45.412109 L 48.729980 45.412109 L 48.729980 46.335938 Z " fill="rgb(0, 0, 0)" fill-opacity="1.000000" />
<path d="M 48.892578 46.335938 L 48.892578 45.412109 L 55.729980 45.412109 L 55.729980 46.335938 Z " fill="rgb(0, 0, 0)" fill-opacity="1.000000" />
<path d="M 55.892578 46.335938 L 55.892578 45.412109 L 62.729980 45.412109 L 62.729980 46.335938 Z " fill="rgb(0, 0, 0)" fill-opacity="1.000000" />
<path d="M 62.892578 46.335938 L 62.892578 45.412109 L 69.729980 45.412109 L 69.729980 46.335938 Z " fill="rgb(0, 0, 0)" fill-opacity="1.000000" />
<path d="M 69.892578 46.335938 L 69.892578 45.412109 L 76.729980 45.412109 L 76.729980 46.335938 Z " fill="rgb(0, 0, 0)" fill-opacity="1.000000" />
<path d="M 76.892578 46.335938 L 76.892578 45.412109 L 83.729980 45.412109 L 83.729980 46.335938 Z " fill="rgb(0, 0, 0)" fill-opacity="1.000000" />
<path d="M 83.892578 46.335938 L 83.892578 45.412109 L 90.729980 45.412109 L 90.729980 46.335938 Z " fill="rgb(0, 0, 0)" fill-opacity="1.000000" />
<path d="M 90.892578 46.335938 L 90.892578 45.412109 L 97.729980 45.412109 L 97.729980 46.335938 Z " fill="rgb(0, 0, 0)" fill-opacity="1.000000" />
<path d="M 97.892578 46.335938 L 97.892578 45.412109 L 104.729980 45.412109 L 104.729980 46.335938 Z " fill="rgb(0, 0, 0)" fill-opacity="1.000000" />
<path d="M 104.892578 46.335938 L 104.892578 45.412109 L 111.729980 45.412109 L 111.729980 46.335938 Z " fill="rgb(0, 0, 0)" fill-opacity="1.000000" />
<path d="M 111.892578 46.335938 L 111.892578 45.412109 L 118.729980 45.412109 L 118.729980 46.335938 Z " fill="rgb(0, 0, 0)" fill-opacity="1.000000" />
<path d="M 118.892578 46.335938 L 118.892578 45.412109 L 125.729980 45.412109 L 125.729980 46.335938 Z " fill="rgb(0, 0, 0)" fill-opacity="1.000000" />
<path d="M 125.892578 46.335938 L 125.892578 45.412109 L 132.729980 45.412109 L 132.729980 46.335938 Z " fill="rgb(0, 0, 0)" fill-opacity="1.000000" />
<path d="M 132.892578 46.335938 L 132.892578 45.412109 L 139.729980 45.412109 L 139.729980 46.335938 Z " fill="rgb(0, 0, 0)" fill-opacity="1.000000" />
<path d="M 139.892578 46.335938 L 139.892578 45.412109 L 146.729980 45.412109 L 146.729980 46.335938 Z " fill="rgb(0, 0, 0)" fill-opacity="1.000000" />
<path d="M 146.892578 46.335938 L 146.892578 45.412109 L 153.729980 45.412109 L 153.729980 46.335938 Z " fill="rgb(0, 0, 0)" fill-opacity="1.000000" />
<path d="M 153.892578 46.335938 L 153.892578 45.412109 L 160.729980 45.412109 L 160.729980 46.335938 Z " fill="rgb(0, 0, 0)" fill-opacity="1.000000" />
<path d="M 160.892578 46.335938 L 160.892578 45.412109 L 167.729980 45.412109 L 167.729980 46.335938 Z " fill="rgb(0, 0, 0)" fill-opacity="1.000000" />
<path d="M 167.892578 46.335938 L 167.892578 45.412109 L 174.729980 45.412109 L 174.729980 46.335938 Z " fill="rgb(0, 0, 0)" fill-opacity="1.000000" />
<path d="M 174.892578 46.335938 L 174.892578 45.412109 L 181.729980 45.412109 L 181.729980 46.335938 Z " fill="rgb(0, 0, 0)" fill-opacity="1.000000" />
<path d="M 181.892578 46.335938 L 181.892578 45.412109 L 188.729980 45.412109 L 188.729980 46.335938 Z " fill="rgb(0, 0, 0)" fill-opacity="1.000000" />
<path d="M 188.892578 46.335938 L 188.892578 45.412109 L 195.729980 45.412109 L 195.729980 46.335938 Z " fill="rgb(0, 0, 0)" fill-opacity="1.000000" />
<path d="M 195.892578 46.335938 L 195.892578 45.412109 L 202.729980 45.412109 L 202.729980 46.335938 Z " fill="rgb(0, 0, 0)" fill-opacity="1.000000" />
<path d="M 202.892578 46.335938 L 202.892578 45.412109 L 209.729980 45.412109 L 209.729980 46.335938 Z " fill="rgb(0, 0, 0)" fill-opacity="1.000000" />
<path d="M 209.892578 46.335938 L 209.892578 45.412109 L 216.729980 45.412109 L 216.729980 46.335938 Z " fill="rgb(0, 0, 0)" fill-opacity="1.000000" />
<path d="M 219.878906 52.319336 L 219.878906 46.335938 L 216.892578 46.335938 L 216.892578 45.412109 L 220.738281 45.412109 L 220.738281 52.319336 Z " fill="rgb(0, 0, 0)" fill-opacity="1.000000" />
<path d="M 92.981934 31.955566 L 92.981934 35.108398 L 94.265625 35.108398 Q 95.210938 35.108398 95.613770 34.778076 Q 96.016602 34.447754 96.016602 33.690430 Q 96.016602 32.691406 95.592285 32.323486 Q 95.167969 31.955566 94.265625 31.955566 Z M 92.981934 28.872559 L 92.981934 31.074707 L 94.244141 31.074707 Q 95.028320 31.074707 95.380127 30.773926 Q 95.731934 30.473145 95.731934 30.016602 Q 95.731934 29.409668 95.385498 29.141113 Q 95.039062 28.872559 94.244141 28.872559 Z M 91.891602 27.980957 L 94.265625 27.980957 Q 95.495605 27.980957 96.161621 28.512695 Q 96.827637 29.044434 96.827637 30.016602 Q 96.827637 30.537598 96.475830 30.961914 Q 96.124023 31.386230 95.420410 31.493652 Q 96.209961 31.611816 96.658447 32.167725 Q 97.106934 32.723633 97.106934 33.797852 Q 97.106934 34.888184 96.392578 35.444092 Q 95.678223 36.000000 94.265625 36.000000 L 91.891602 36.000000 Z " fill="rgb(0, 0, 0)" fill-opacity="1.000000" />
<path d="M 99.047363 33.722656 L 99.047363 29.995117 L 100.035645 29.995117 L 100.035645 33.722656 Q 100.035645 34.533691 100.322998 34.915039 Q 100.610352 35.296387 101.211914 35.296387 Q 101.910156 35.296387 102.280762 34.804932 Q 102.651367 34.313477 102.651367 33.395020 L 102.651367 29.995117 L 103.645020 29.995117 L 103.645020 36.000000 L 102.651367 36.000000 L 102.651367 35.097656 Q 102.388184 35.618652 101.934326 35.887207 Q 101.480469 36.155762 100.873535 36.155762 Q 99.949707 36.155762 99.498535 35.551514 Q 99.047363 34.947266 99.047363 33.722656 Z " fill="rgb(0, 0, 0)" fill-opacity="1.000000" />
<path d="M 106.697266 30.005859 L 109.227051 30.005859 L 109.227051 35.231934 L 111.187500 35.231934 L 111.187500 36.000000 L 106.278320 36.000000 L 106.278320 35.231934 L 108.238770 35.231934 L 108.238770 30.773926 L 106.697266 30.773926 Z M 108.238770 27.669434 L 109.227051 27.669434 L 109.227051 28.915527 L 108.238770 28.915527 Z " fill="rgb(0, 0, 0)" fill-opacity="1.000000" />
<path d="M 115.861816 33.824707 Q 115.861816 34.490723 116.106201 34.829102 Q 116.350586 35.167480 116.828613 35.167480 L 117.983398 35.167480 L 117.983398 36.000000 L 116.731934 36.000000 Q 115.845703 36.000000 115.359619 35.433350 Q 114.873535 34.866699 114.873535 33.824707 L 114.873535 28.383789 L 113.289062 28.383789 L 113.289062 27.610352 L 115.861816 27.610352 Z " fill="rgb(0, 0, 0)" fill-opacity="1.000000" />
<path d="M 123.608398 30.752441 L 123.608398 27.642578 L 124.596680 27.642578 L 124.596680 36.000000 L 123.608398 36.000000 L 123.608398 35.242676 Q 123.361328 35.688477 122.950439 35.922119 Q 122.539551 36.155762 122.002441 36.155762 Q 120.912109 36.155762 120.286377 35.309814 Q 119.660645 34.463867 119.660645 32.976074 Q 119.660645 31.509766 120.289062 30.674561 Q 120.917480 29.839355 122.002441 29.839355 Q 122.544922 29.839355 122.958496 30.072998 Q 123.372070 30.306641 123.608398 30.752441 Z M 120.702637 32.997559 Q 120.702637 34.146973 121.067871 34.732422 Q 121.433105 35.317871 122.147461 35.317871 Q 122.861816 35.317871 123.235107 34.727051 Q 123.608398 34.136230 123.608398 32.997559 Q 123.608398 31.853516 123.235107 31.265381 Q 122.861816 30.677246 122.147461 30.677246 Q 121.433105 30.677246 121.067871 31.262695 Q 120.702637 31.848145 120.702637 32.997559 Z " fill="rgb(0, 0, 0)" fill-opacity="1.000000" />
<path d="M 137.608398 32.943848 Q 137.608398 31.832031 137.245850 31.254639 Q 136.883301 30.677246 136.190430 30.677246 Q 135.465332 30.677246 135.083984 31.254639 Q 134.702637 31.832031 134.702637 32.943848 Q 134.702637 34.055664 135.086670 34.638428 Q 135.470703 35.221191 136.201172 35.221191 Q 136.883301 35.221191 137.245850 34.635742 Q 137.608398 34.050293 137.608398 32.943848 Z M 138.596680 35.613281 Q 138.596680 36.966797 137.957520 37.665039 Q 137.318359 38.363281 136.077637 38.363281 Q 135.669434 38.363281 135.223633 38.288086 Q 134.777832 38.212891 134.332031 38.067871 L 134.332031 37.090332 Q 134.858398 37.337402 135.288086 37.455566 Q 135.717773 37.573730 136.077637 37.573730 Q 136.877930 37.573730 137.243164 37.138672 Q 137.608398 36.703613 137.608398 35.758301 L 137.608398 35.715332 L 137.608398 35.043945 Q 137.372070 35.548828 136.963867 35.795898 Q 136.555664 36.042969 135.970215 36.042969 Q 134.917480 36.042969 134.289062 35.199707 Q 133.660645 34.356445 133.660645 32.943848 Q 133.660645 31.525879 134.289062 30.682617 Q 134.917480 29.839355 135.970215 29.839355 Q 136.550293 29.839355 136.953125 30.070312 Q 137.355957 30.301270 137.608398 30.784668 L 137.608398 30.005859 L 138.596680 30.005859 Z " fill="rgb(0, 0, 0)" fill-opacity="1.000000" />
<path d="M 146.203613 31.225098 Q 145.886719 30.978027 145.559082 30.865234 Q 145.231445 30.752441 144.839355 30.752441 Q 143.915527 30.752441 143.426758 31.332520 Q 142.937988 31.912598 142.937988 33.008301 L 142.937988 36.000000 L 141.944336 36.000000 L 141.944336 29.984375 L 142.937988 29.984375 L 142.937988 31.160645 Q 143.185059 30.521484 143.697998 30.180420 Q 144.210938 29.839355 144.914551 29.839355 Q 145.279785 29.839355 145.596680 29.930664 Q 145.913574 30.021973 146.203613 30.215332 Z " fill="rgb(0, 0, 0)" fill-opacity="1.000000" />
<path d="M 150.770508 32.976074 L 150.442871 32.976074 Q 149.578125 32.976074 149.140381 33.279541 Q 148.702637 33.583008 148.702637 34.184570 Q 148.702637 34.727051 149.030273 35.027832 Q 149.357910 35.328613 149.937988 35.328613 Q 150.754395 35.328613 151.221680 34.761963 Q 151.688965 34.195312 151.694336 33.196289 L 151.694336 32.976074 Z M 152.687988 32.567871 L 152.687988 36.000000 L 151.694336 36.000000 L 151.694336 35.108398 Q 151.377441 35.645508 150.896729 35.900635 Q 150.416016 36.155762 149.728516 36.155762 Q 148.810059 36.155762 148.262207 35.637451 Q 147.714355 35.119141 147.714355 34.249023 Q 147.714355 33.244629 148.388428 32.723633 Q 149.062500 32.202637 150.367676 32.202637 L 151.694336 32.202637 L 151.694336 32.046875 Q 151.688965 31.327148 151.329102 31.002197 Q 150.969238 30.677246 150.179688 30.677246 Q 149.674805 30.677246 149.159180 30.822266 Q 148.643555 30.967285 148.154785 31.246582 L 148.154785 30.258301 Q 148.702637 30.048828 149.204834 29.944092 Q 149.707031 29.839355 150.179688 29.839355 Q 150.926270 29.839355 151.455322 30.059570 Q 151.984375 30.279785 152.312012 30.720215 Q 152.516113 30.988770 152.602051 31.383545 Q 152.687988 31.778320 152.687988 32.567871 Z " fill="rgb(0, 0, 0)" fill-opacity="1.000000" />
<path d="M 156.014160 35.242676 L 156.014160 38.288086 L 155.020508 38.288086 L 155.020508 29.984375 L 156.014160 29.984375 L 156.014160 30.752441 Q 156.261230 30.306641 156.672119 30.072998 Q 157.083008 29.839355 157.620117 29.839355 Q 158.710449 29.839355 159.330811 30.682617 Q 159.951172 31.525879 159.951172 33.019043 Q 159.951172 34.485352 159.328125 35.320557 Q 158.705078 36.155762 157.620117 36.155762 Q 157.072266 36.155762 156.661377 35.922119 Q 156.250488 35.688477 156.014160 35.242676 Z M 158.914551 32.997559 Q 158.914551 31.848145 158.552002 31.262695 Q 158.189453 30.677246 157.475098 30.677246 Q 156.755371 30.677246 156.384766 31.265381 Q 156.014160 31.853516 156.014160 32.997559 Q 156.014160 34.136230 156.384766 34.727051 Q 156.755371 35.317871 157.475098 35.317871 Q 158.189453 35.317871 158.552002 34.732422 Q 158.914551 34.146973 158.914551 32.997559 Z " fill="rgb(0, 0, 0)" fill-opacity="1.000000" />
<path d="M 166.645020 32.272461 L 166.645020 36.000000 L 165.651367 36.000000 L 165.651367 32.272461 Q 165.651367 31.461426 165.366699 31.080078 Q 165.082031 30.698730 164.475098 30.698730 Q 163.782227 30.698730 163.408936 31.190186 Q 163.035645 31.681641 163.035645 32.600098 L 163.035645 36.000000 L 162.047363 36.000000 L 162.047363 27.642578 L 163.035645 27.642578 L 163.035645 30.886719 Q 163.298828 30.371094 163.750000 30.105225 Q 164.201172 29.839355 164.818848 29.839355 Q 165.737305 29.839355 166.191162 30.443604 Q 166.645020 31.047852 166.645020 32.272461 Z " fill="rgb(0, 0, 0)" fill-opacity="1.000000" />
</svg>